# Blender v2.80 (sub 41) OBJ File: 'garbage.blend'
# www.blender.org
o Cube_Cube.001
v -0.306718 -0.306718 1.306718
v -0.306718 0.306718 1.306718
v -0.306718 -0.306718 0.693282
v -0.306718 0.306718 0.693282
v 0.306718 -0.306718 1.306718
v 0.306718 0.306718 1.306718
v 0.306718 -0.306718 0.693282
v 0.306718 0.306718 0.693282
v -0.595844 0.000000 1.595844
v -0.595844 0.000000 0.404156
v 0.595844 0.000000 0.404156
v 0.595844 0.000000 1.595844
vn -0.7277 0.6859 0.0000
vn 0.0000 0.6859 -0.7277
vn 0.7277 0.6859 0.0000
vn 0.0000 0.6859 0.7277
vn 0.0000 -1.0000 0.0000
vn 0.0000 1.0000 0.0000
vn 0.0000 -0.6859 0.7277
vn 0.7277 -0.6859 0.0000
vn 0.0000 -0.6859 -0.7277
vn -0.7277 -0.6859 0.0000
s off
f 9//1 2//1 4//1 10//1
f 10//2 4//2 8//2 11//2
f 11//3 8//3 6//3 12//3
f 12//4 6//4 2//4 9//4
f 3//5 7//5 5//5 1//5
f 8//6 4//6 2//6 6//6
f 5//7 12//7 9//7 1//7
f 7//8 11//8 12//8 5//8
f 3//9 10//9 11//9 7//9
f 1//10 9//10 10//10 3//10
