# Blender v2.80 (sub 41) OBJ File: 'garbage.blend'
# www.blender.org
o Cube.001_Cube.002
v -0.328737 -0.328737 2.328737
v -0.406973 0.488307 2.406973
v -0.328737 -0.328737 1.671263
v -0.406973 0.488307 1.593027
v 0.328737 -0.328737 2.328737
v 0.406973 0.488307 2.406973
v 0.328737 -0.328737 1.671263
v 0.406973 0.488307 1.593027
v -0.406973 0.542325 2.000000
v 0.406973 0.542325 2.000000
vn -0.9954 -0.0953 0.0000
vn 0.0000 -0.0953 -0.9954
vn 0.9954 -0.0953 0.0000
vn 0.0000 -0.0953 0.9954
vn 0.0000 -1.0000 0.0000
vn -1.0000 0.0000 0.0000
vn 0.0000 0.9913 0.1316
vn 0.0000 0.9913 -0.1316
vn 1.0000 0.0000 0.0000
s off
f 1//1 2//1 4//1 3//1
f 3//2 4//2 8//2 7//2
f 7//3 8//3 6//3 5//3
f 5//4 6//4 2//4 1//4
f 3//5 7//5 5//5 1//5
f 4//6 2//6 9//6
f 2//7 6//7 10//7 9//7
f 8//8 4//8 9//8 10//8
f 6//9 8//9 10//9
