# Blender v2.80 (sub 41) OBJ File: ''
# www.blender.org
mtllib speed.mtl
o Circle.004
v 0.547273 4.668179 0.000001
v 0.547273 4.668179 0.012457
v 0.547273 3.331821 0.012457
v 0.547273 3.331821 0.000001
v -0.547273 4.668179 0.000001
v -0.547273 3.331821 0.000001
v -0.547273 4.668179 0.012457
v -0.547273 3.331821 0.012457
vt 0.000000 0.000000
vt 1.000000 0.000000
vt 1.000000 1.000000
vt 0.000000 1.000000
vt 0.000000 0.000000
vt 1.000000 0.000000
vt 1.000000 1.000000
vt 0.000000 1.000000
vt 0.000000 0.000000
vt 1.000000 0.000000
vt 0.000000 1.000000
vt 0.000000 0.000000
vt 1.000000 0.000000
vt 0.000000 1.000000
vt 1.000000 0.000000
vt 1.000000 1.000000
vt 1.000000 1.000000
vn 1.0000 0.0000 0.0000
vn 0.0000 0.0000 -1.0000
vn 0.0000 -0.0000 1.0000
vn 0.0000 -1.0000 0.0000
vn 0.0000 1.0000 0.0000
vn -1.0000 0.0000 0.0000
usemtl Default_OBJ.001
s 1
f 1/1/1 2/2/1 3/3/1 4/4/1
f 5/5/2 1/6/2 4/7/2 6/8/2
f 7/9/3 8/10/3 3/3/3 2/11/3
f 6/12/4 4/13/4 3/3/4 8/14/4
f 1/1/5 5/15/5 7/16/5 2/11/5
f 7/9/6 5/15/6 6/17/6 8/14/6
o Cylinder
v -0.048347 4.617596 -0.127411
v -0.048347 -0.075130 -0.127411
v -0.000054 4.617596 -0.144988
v -0.000054 -0.075130 -0.144988
v 0.048239 4.617596 -0.127411
v 0.048239 -0.075130 -0.127411
v 0.073935 4.617596 -0.082904
v 0.073935 -0.075130 -0.082904
v 0.065011 4.617596 -0.032292
v 0.065011 -0.075130 -0.032292
v 0.025642 4.617596 0.000742
v 0.025642 -0.075130 0.000742
v -0.025750 4.617596 0.000742
v -0.025750 -0.075130 0.000742
v -0.065119 4.617596 -0.032292
v -0.065119 -0.075130 -0.032292
v -0.074043 4.617596 -0.082904
v -0.074043 -0.075130 -0.082904
vt 1.000000 0.500000
vt 0.888889 0.500000
vt 0.888889 1.000000
vt 1.000000 1.000000
vt 0.777778 0.500000
vt 0.777778 1.000000
vt 0.666667 0.500000
vt 0.666667 1.000000
vt 0.555556 0.500000
vt 0.555556 1.000000
vt 0.444444 0.500000
vt 0.444444 1.000000
vt 0.333333 0.500000
vt 0.333333 1.000000
vt 0.222222 0.500000
vt 0.222222 1.000000
vt 0.404269 0.433851
vt 0.486354 0.291676
vt 0.457846 0.130000
vt 0.332085 0.024474
vt 0.167915 0.024474
vt 0.042154 0.130000
vt 0.013646 0.291676
vt 0.095731 0.433851
vt 0.250000 0.490000
vt 0.111111 0.500000
vt 0.111111 1.000000
vt 0.000000 0.500000
vt 0.000000 1.000000
vt 0.750000 0.490000
vt 0.595731 0.433851
vt 0.513646 0.291676
vt 0.542154 0.130000
vt 0.667915 0.024474
vt 0.832085 0.024474
vt 0.957846 0.130000
vt 0.986354 0.291676
vt 0.904269 0.433851
vn -0.4952 0.6376 -0.5901
vn 0.0000 0.6376 -0.7703
vn 0.0000 -0.6376 -0.7703
vn -0.4952 -0.6376 -0.5901
vn 0.4952 0.6376 -0.5901
vn 0.4952 -0.6376 -0.5901
vn 0.7586 0.6376 -0.1338
vn 0.7586 -0.6376 -0.1338
vn 0.6671 0.6376 0.3852
vn 0.6671 -0.6376 0.3852
vn 0.2635 0.6376 0.7239
vn 0.2635 -0.6376 0.7239
vn -0.2635 0.6376 0.7239
vn -0.2635 -0.6376 0.7239
vn -0.6671 0.6376 0.3852
vn -0.6671 -0.6376 0.3852
vn -0.7586 -0.6376 -0.1338
vn -0.7586 0.6376 -0.1338
usemtl None
s 1
f 9/18/7 11/19/8 12/20/9 10/21/10
f 11/19/8 13/22/11 14/23/12 12/20/9
f 13/22/11 15/24/13 16/25/14 14/23/12
f 15/24/13 17/26/15 18/27/16 16/25/14
f 17/26/15 19/28/17 20/29/18 18/27/16
f 19/28/17 21/30/19 22/31/20 20/29/18
f 21/30/19 23/32/21 24/33/22 22/31/20
f 12/34/9 14/35/12 16/36/14 18/37/16 20/38/18 22/39/20 24/40/22 26/41/23 10/42/10
f 23/32/21 25/43/24 26/44/23 24/33/22
f 25/43/24 9/45/7 10/46/10 26/44/23
f 9/47/7 25/48/24 23/49/21 21/50/19 19/51/17 17/52/15 15/53/13 13/54/11 11/55/8
