# Blender v2.80 (sub 41) OBJ File: ''
# www.blender.org
mtllib stopStreetName2.mtl
o Circle.002
v 0.382684 4.923880 0.087065
v 0.923880 4.382683 0.087065
v 0.923880 3.617316 0.087065
v 0.382684 3.076120 0.087065
v -0.382683 3.076120 0.087065
v -0.923880 3.617317 0.087065
v -0.923880 4.382683 0.087065
v -0.382683 4.923880 0.087065
v 0.382684 4.923880 0.099521
v -0.382683 4.923880 0.099521
v -0.923880 4.382683 0.099521
v -0.923880 3.617317 0.099521
v -0.382683 3.076120 0.099521
v 0.382684 3.076120 0.099521
v 0.923880 3.617316 0.099521
v 0.923880 4.382683 0.099521
vn 0.0000 0.0000 -1.0000
vn -0.0000 -0.0000 1.0000
vn 0.7071 -0.7071 0.0000
vn -0.7071 -0.7071 0.0000
vn -0.7071 0.7071 0.0000
vn 1.0000 -0.0000 0.0000
vn 0.0000 -1.0000 0.0000
vn -1.0000 -0.0000 0.0000
vn 0.0000 1.0000 0.0000
vn 0.7071 0.7071 0.0000
usemtl Default_OBJ
s 1
f 1//1 2//1 3//1 4//1 5//1 6//1 7//1 8//1
f 9//2 10//2 11//2 12//2 13//2 14//2 15//2 16//2
f 4//3 3//3 15//3 14//3
f 6//4 5//4 13//4 12//4
f 8//5 7//5 11//5 10//5
f 3//6 2//6 16//6 15//6
f 5//7 4//7 14//7 13//7
f 7//8 6//8 12//8 11//8
f 1//9 8//9 10//9 9//9
f 2//10 1//10 9//10 16//10
o Circle.001
v -1.051238 5.010008 0.099521
v -1.051238 5.010008 0.087065
v 1.051237 5.010007 0.087065
v 1.051237 5.010007 0.099521
v 1.051237 5.492605 0.099521
v 1.051237 5.492605 0.087065
v -1.051238 5.492605 0.087065
v -1.051238 5.492605 0.099521
v 0.093772 5.510008 -1.057944
v 0.106228 5.510007 -1.057944
v 0.106228 5.510007 1.044531
v 0.093772 5.510007 1.044531
v 0.093772 5.992605 1.044531
v 0.106228 5.992605 1.044531
v 0.106228 5.992605 -1.057944
v 0.093772 5.992605 -1.057944
vn -0.0000 -1.0000 0.0000
vn 0.0000 1.0000 0.0000
vn 0.0000 0.0000 -1.0000
vn 1.0000 0.0000 0.0000
vn 0.0000 -0.0000 1.0000
vn -1.0000 0.0000 0.0000
usemtl Default_OBJ.002
s 1
f 17//11 18//11 19//11 20//11
f 21//12 22//12 23//12 24//12
f 18//13 23//13 22//13 19//13
f 19//14 22//14 21//14 20//14
f 24//15 17//15 20//15 21//15
f 23//16 18//16 17//16 24//16
f 25//11 26//11 27//11 28//11
f 29//12 30//12 31//12 32//12
f 26//14 31//14 30//14 27//14
f 27//15 30//15 29//15 28//15
f 32//16 25//16 28//16 29//16
f 31//13 26//13 25//13 32//13
o Cylinder
v 0.000000 -0.094900 -0.094900
v 0.000000 6.094900 -0.094900
v 0.061000 -0.094900 -0.072698
v 0.061000 6.094900 -0.072698
v 0.093458 -0.094900 -0.016479
v 0.093458 6.094900 -0.016479
v 0.082186 -0.094900 0.047450
v 0.082186 6.094900 0.047450
v 0.032458 -0.094900 0.089177
v 0.032458 6.094900 0.089177
v -0.032458 -0.094900 0.089177
v -0.032458 6.094900 0.089177
v -0.082186 -0.094900 0.047450
v -0.082186 6.094900 0.047450
v -0.093458 -0.094900 -0.016479
v -0.093458 6.094900 -0.016479
v -0.061000 -0.094900 -0.072698
v -0.061000 6.094900 -0.072698
vt 1.000000 0.500000
vt 1.000000 1.000000
vt 0.888889 1.000000
vt 0.888889 0.500000
vt 0.777778 1.000000
vt 0.777778 0.500000
vt 0.666667 1.000000
vt 0.666667 0.500000
vt 0.555556 1.000000
vt 0.555556 0.500000
vt 0.444444 1.000000
vt 0.444444 0.500000
vt 0.333333 1.000000
vt 0.333333 0.500000
vt 0.222222 1.000000
vt 0.222222 0.500000
vt 0.404269 0.433851
vt 0.250000 0.490000
vt 0.095731 0.433851
vt 0.013646 0.291676
vt 0.042154 0.130000
vt 0.167915 0.024474
vt 0.332085 0.024474
vt 0.457846 0.130000
vt 0.486354 0.291676
vt 0.111111 1.000000
vt 0.111111 0.500000
vt 0.000000 1.000000
vt 0.000000 0.500000
vt 0.750000 0.490000
vt 0.904269 0.433851
vt 0.986354 0.291676
vt 0.957846 0.130000
vt 0.832085 0.024474
vt 0.667915 0.024474
vt 0.542154 0.130000
vt 0.513646 0.291676
vt 0.595731 0.433851
vn 0.0000 -0.6376 -0.7703
vn 0.0000 0.6376 -0.7703
vn 0.4952 0.6376 -0.5901
vn 0.4952 -0.6376 -0.5901
vn 0.7586 0.6376 -0.1338
vn 0.7586 -0.6376 -0.1338
vn 0.6671 0.6376 0.3852
vn 0.6671 -0.6376 0.3852
vn 0.2635 0.6376 0.7239
vn 0.2635 -0.6376 0.7239
vn -0.2635 0.6376 0.7239
vn -0.2635 -0.6376 0.7239
vn -0.6671 0.6376 0.3852
vn -0.6671 -0.6376 0.3852
vn -0.7586 0.6376 -0.1338
vn -0.7586 -0.6376 -0.1338
vn -0.4952 0.6376 -0.5901
vn -0.4952 -0.6376 -0.5901
usemtl None
s 1
f 33/1/17 34/2/18 36/3/19 35/4/20
f 35/4/20 36/3/19 38/5/21 37/6/22
f 37/6/22 38/5/21 40/7/23 39/8/24
f 39/8/24 40/7/23 42/9/25 41/10/26
f 41/10/26 42/9/25 44/11/27 43/12/28
f 43/12/28 44/11/27 46/13/29 45/14/30
f 45/14/30 46/13/29 48/15/31 47/16/32
f 36/17/19 34/18/18 50/19/33 48/20/31 46/21/29 44/22/27 42/23/25 40/24/23 38/25/21
f 47/16/32 48/15/31 50/26/33 49/27/34
f 49/27/34 50/26/33 34/28/18 33/29/17
f 33/30/17 35/31/20 37/32/22 39/33/24 41/34/26 43/35/28 45/36/30 47/37/32 49/38/34
