# Blender v2.80 (sub 41) OBJ File: ''
# www.blender.org
mtllib streetName.mtl
o Circle.006
v -1.050668 4.201007 0.102962
v -1.050668 4.201007 0.090506
v 1.051807 4.201007 0.090506
v 1.051807 4.201007 0.102962
v 1.051807 4.683605 0.102962
v 1.051807 4.683605 0.090506
v -1.050668 4.683605 0.090506
v -1.050668 4.683605 0.102962
vn 0.0000 -1.0000 0.0000
vn 0.0000 1.0000 0.0000
vn 0.0000 0.0000 -1.0000
vn 1.0000 0.0000 0.0000
vn 0.0000 -0.0000 1.0000
vn -1.0000 0.0000 0.0000
usemtl Default_OBJ
s 1
f 1//1 2//1 3//1 4//1
f 5//2 6//2 7//2 8//2
f 2//3 7//3 6//3 3//3
f 3//4 6//4 5//4 4//4
f 8//5 1//5 4//5 5//5
f 7//6 2//6 1//6 8//6
o Cylinder
v 0.000000 -0.098994 -0.098994
v 0.000000 4.798994 -0.098994
v 0.063632 -0.098994 -0.075834
v 0.063632 4.798994 -0.075834
v 0.097490 -0.098994 -0.017190
v 0.097490 4.798994 -0.017190
v 0.085732 -0.098994 0.049497
v 0.085732 4.798994 0.049497
v 0.033858 -0.098994 0.093024
v 0.033858 4.798994 0.093024
v -0.033858 -0.098994 0.093024
v -0.033858 4.798994 0.093024
v -0.085732 -0.098994 0.049497
v -0.085732 4.798994 0.049497
v -0.097490 -0.098994 -0.017190
v -0.097490 4.798994 -0.017190
v -0.063632 -0.098994 -0.075834
v -0.063632 4.798994 -0.075834
vt 1.000000 0.500000
vt 1.000000 1.000000
vt 0.888889 1.000000
vt 0.888889 0.500000
vt 0.777778 1.000000
vt 0.777778 0.500000
vt 0.666667 1.000000
vt 0.666667 0.500000
vt 0.555556 1.000000
vt 0.555556 0.500000
vt 0.444444 1.000000
vt 0.444444 0.500000
vt 0.333333 1.000000
vt 0.333333 0.500000
vt 0.222222 1.000000
vt 0.222222 0.500000
vt 0.404269 0.433851
vt 0.250000 0.490000
vt 0.095731 0.433851
vt 0.013646 0.291676
vt 0.042154 0.130000
vt 0.167915 0.024474
vt 0.332085 0.024474
vt 0.457846 0.130000
vt 0.486354 0.291676
vt 0.111111 1.000000
vt 0.111111 0.500000
vt 0.000000 1.000000
vt 0.000000 0.500000
vt 0.750000 0.490000
vt 0.904269 0.433851
vt 0.986354 0.291676
vt 0.957846 0.130000
vt 0.832085 0.024474
vt 0.667915 0.024474
vt 0.542154 0.130000
vt 0.513646 0.291676
vt 0.595731 0.433851
vn 0.0000 -0.6376 -0.7703
vn 0.0000 0.6376 -0.7703
vn 0.4952 0.6376 -0.5901
vn 0.4952 -0.6376 -0.5901
vn 0.7586 0.6376 -0.1338
vn 0.7586 -0.6376 -0.1338
vn 0.6671 0.6376 0.3852
vn 0.6671 -0.6376 0.3852
vn 0.2635 0.6376 0.7239
vn 0.2635 -0.6376 0.7239
vn -0.2635 0.6376 0.7239
vn -0.2635 -0.6376 0.7239
vn -0.6671 0.6376 0.3852
vn -0.6671 -0.6376 0.3852
vn -0.7586 0.6376 -0.1338
vn -0.7586 -0.6376 -0.1338
vn -0.4952 0.6376 -0.5901
vn -0.4952 -0.6376 -0.5901
usemtl None
s 1
f 9/1/7 10/2/8 12/3/9 11/4/10
f 11/4/10 12/3/9 14/5/11 13/6/12
f 13/6/12 14/5/11 16/7/13 15/8/14
f 15/8/14 16/7/13 18/9/15 17/10/16
f 17/10/16 18/9/15 20/11/17 19/12/18
f 19/12/18 20/11/17 22/13/19 21/14/20
f 21/14/20 22/13/19 24/15/21 23/16/22
f 12/17/9 10/18/8 26/19/23 24/20/21 22/21/19 20/22/17 18/23/15 16/24/13 14/25/11
f 23/16/22 24/15/21 26/26/23 25/27/24
f 25/27/24 26/26/23 10/28/8 9/29/7
f 9/30/7 11/31/10 13/32/12 15/33/14 17/34/16 19/35/18 21/36/20 23/37/22 25/38/24
