# Blender v2.80 (sub 41) OBJ File: 'truck.blend'
# www.blender.org
mtllib garbagetruck.mtl
o Plane.001
v 3.576421 -0.000000 -1.343634
v 3.576421 0.000000 -0.339729
v 3.576421 0.097926 -0.349374
v 3.576421 0.192089 -0.377938
v 3.576421 0.278870 -0.424324
v 3.576421 0.354934 -0.486748
v 3.576421 0.417358 -0.562812
v 3.576421 0.463744 -0.649593
v 3.576421 0.492308 -0.743756
v 3.576421 0.501952 -0.841682
v 3.576421 0.492307 -0.939608
v 3.576421 0.463743 -1.033771
v 3.576421 0.417358 -1.120552
v 3.576421 0.354933 -1.196616
v 3.576421 0.278869 -1.259040
v 3.576421 0.192088 -1.305425
v 3.576421 0.097925 -1.333989
v 3.576421 0.000000 -3.853395
v 3.576421 0.097925 -4.847655
v 2.424903 -0.000000 -1.343634
v 2.424903 0.000000 -0.339729
v 2.424903 0.097926 -0.349374
v 2.424903 0.192089 -0.377938
v 2.424903 0.278870 -0.424324
v 2.424903 0.354934 -0.486748
v 2.424903 0.417358 -0.562812
v 2.424903 0.463744 -0.649593
v 2.424903 0.492307 -0.743756
v 2.424903 0.501952 -0.841682
v 2.424903 0.492307 -0.939608
v 2.424903 0.463743 -1.033771
v 2.424903 0.417358 -1.120552
v 2.424903 0.354933 -1.196616
v 2.424903 0.278869 -1.259040
v 2.424903 0.192088 -1.305425
v 2.424903 0.097925 -1.333989
v 2.424903 -0.000000 -4.857300
v 2.424903 0.000000 -3.853395
v 2.000000 0.000000 0.541371
v 4.000000 0.000000 0.541371
v 2.000000 0.981588 0.541371
v 4.000000 0.981588 0.541371
v 2.000000 1.464835 -1.000000
v 4.000000 1.464835 -1.000000
v 4.000000 2.632224 -1.170994
v 2.000000 2.632224 -1.170994
v 4.000000 0.000000 -5.659272
v 2.000000 0.000000 -5.659272
v 4.000000 2.632224 -5.659272
v 2.000000 2.632224 -5.659272
v 3.911522 0.116446 -5.659272
v 2.088478 0.116446 -5.659272
v 3.911522 2.515778 -5.659272
v 2.088478 2.515778 -5.659272
v 3.911522 0.116446 -2.797764
v 2.088478 0.116446 -2.797764
v 3.911522 2.515778 -2.797764
v 2.088478 2.515778 -2.797764
v 2.000000 2.632224 -2.453517
v 2.000000 0.000000 -2.453517
v 4.000000 0.000000 -2.453517
v 4.000000 2.632224 -2.453517
v 2.000000 0.395407 -1.236806
v 2.000000 2.497152 -1.236806
v 4.000000 2.497152 -1.236806
v 4.000000 0.395407 -1.236806
v 2.000000 0.395407 -2.387704
v 4.000000 0.395407 -2.387704
v 4.000000 2.497152 -2.387704
v 2.000000 2.497152 -2.387704
v 3.919619 1.511753 -1.006872
v 2.080381 1.511753 -1.006872
v 3.919619 2.511596 -1.164122
v 2.080381 2.511596 -1.164122
v 3.919619 1.500772 -1.081839
v 2.080381 1.500772 -1.081839
v 3.919619 2.500615 -1.239089
v 2.080381 2.500615 -1.239089
v 2.000000 1.459010 -1.236806
v 4.000000 1.459010 -1.236806
v 3.891346 2.497152 -2.325179
v 3.891346 2.497152 -1.299331
v 2.108654 2.497152 -1.299331
v 2.108654 2.497152 -2.325179
v 4.000000 0.417358 -0.562812
v 4.000000 0.354934 -0.486748
v 4.000000 0.097926 -0.349374
v 4.000000 0.278870 -0.424324
v 4.000000 0.192089 -0.377938
v 4.000000 0.000000 -0.339729
v 2.000000 0.097926 -0.349374
v 2.000000 0.000000 -0.339729
v 2.000000 0.417358 -0.562812
v 2.000000 0.354934 -0.486748
v 2.000000 0.278870 -0.424324
v 2.000000 0.192089 -0.377938
v 4.000000 0.463744 -0.649593
v 4.000000 0.501952 -0.841682
v 4.000000 0.492308 -0.743756
v 4.000000 0.492307 -0.939608
v 2.000000 0.492307 -0.743756
v 2.000000 0.501952 -0.841682
v 2.000000 0.492307 -0.939608
v 2.000000 0.463744 -0.649593
v 4.000000 0.375961 -1.170994
v 4.000000 0.354933 -1.196616
v 4.000000 0.417358 -1.120552
v 4.000000 0.463743 -1.033771
v 4.000000 0.473988 -1.000000
v 4.000000 0.278869 -1.259040
v 4.000000 0.321043 -1.224429
v 2.424903 0.000000 -1.170994
v 2.424903 0.000000 -1.000000
v 2.000000 0.354933 -1.196616
v 2.000000 0.321043 -1.224429
v 2.000000 0.473987 -1.000000
v 2.000000 0.463743 -1.033771
v 2.000000 0.417358 -1.120552
v 2.000000 0.375961 -1.170994
v 2.000000 0.278869 -1.259040
v 4.000000 0.000000 -3.853395
v 2.000000 0.000000 -3.853395
v 2.000000 0.097926 -3.863040
v 4.000000 0.000000 -1.343634
v 4.000000 0.097925 -1.333989
v 2.000000 -0.000000 -1.343634
v 2.000000 0.097925 -1.333989
v 2.000000 0.192088 -1.305425
v 4.000000 0.192088 -1.305425
v 3.576421 0.000000 -1.170994
v 3.576421 0.000000 -1.000000
v 4.000000 0.278870 -3.937990
v 3.911522 0.278870 -3.937990
v 4.000000 0.192089 -3.891605
v 3.911523 0.192089 -3.891605
v 4.000000 0.097926 -3.863040
v 4.000000 0.417358 -4.076478
v 3.911522 0.417358 -4.076478
v 4.000000 0.354934 -4.000414
v 3.911522 0.354934 -4.000414
v 3.576421 0.116446 -3.868660
v 2.088478 0.417358 -4.076478
v 2.000000 0.417358 -4.076478
v 2.088478 0.278870 -3.937990
v 2.000000 0.278870 -3.937990
v 2.088478 0.192089 -3.891605
v 2.000000 0.192089 -3.891604
v 2.088478 0.354934 -4.000414
v 2.000000 0.354934 -4.000414
v 2.424903 0.116446 -3.868660
v 4.000000 0.492308 -4.257422
v 3.911522 0.492308 -4.257422
v 4.000000 0.501952 -4.355349
v 3.911522 0.501952 -4.355349
v 4.000000 0.492307 -4.453275
v 3.911522 0.492307 -4.453275
v 4.000000 0.463744 -4.163260
v 3.911522 0.463744 -4.163260
v 4.000000 0.463743 -4.547438
v 3.911522 0.463743 -4.547438
v 2.088478 0.501952 -4.355349
v 2.000000 0.501952 -4.355349
v 2.088478 0.492307 -4.453275
v 2.000000 0.492307 -4.453275
v 2.088478 0.492307 -4.257422
v 2.000000 0.492307 -4.257422
v 2.088478 0.463744 -4.163260
v 2.000000 0.463744 -4.163260
v 4.000000 0.417358 -4.634218
v 3.911522 0.417358 -4.634218
v 4.000000 0.354933 -4.710282
v 3.911522 0.354933 -4.710282
v 4.000000 0.278869 -4.772707
v 3.911522 0.278869 -4.772707
v 4.000000 0.192088 -4.819092
v 3.911522 0.192088 -4.819092
v 2.088478 0.278869 -4.772707
v 2.000000 0.278869 -4.772707
v 2.088478 0.354933 -4.710282
v 2.000000 0.354933 -4.710282
v 2.088478 0.192088 -4.819092
v 2.000000 0.192088 -4.819092
v 2.088478 0.463743 -4.547438
v 2.000000 0.463743 -4.547438
v 2.088478 0.417358 -4.634218
v 2.000000 0.417358 -4.634218
v 4.000000 0.000000 -4.857300
v 4.000000 0.097925 -4.847655
v 3.576421 0.116446 -4.842037
v 2.424903 0.116446 -4.842040
v 2.000000 0.097925 -4.847655
v 2.000000 0.000000 -4.857300
v 3.576421 -0.000000 -4.857300
v 3.576421 0.097926 -3.863040
v 3.576421 0.192089 -3.891605
v 3.576421 0.278870 -3.937990
v 3.576421 0.354934 -4.000414
v 3.576421 0.417358 -4.076478
v 3.576421 0.463744 -4.163260
v 3.576421 0.492308 -4.257422
v 3.576421 0.501952 -4.355349
v 3.576421 0.492307 -4.453275
v 3.576421 0.463743 -4.547438
v 3.576421 0.417358 -4.634218
v 3.576421 0.354933 -4.710282
v 3.576421 0.278869 -4.772707
v 3.576421 0.192088 -4.819092
v 2.424903 0.097926 -3.863040
v 2.424903 0.192089 -3.891605
v 2.424903 0.278870 -3.937990
v 2.424903 0.354934 -4.000414
v 2.424903 0.417358 -4.076478
v 2.424903 0.463744 -4.163260
v 2.424903 0.492307 -4.257422
v 2.424903 0.501952 -4.355349
v 2.424903 0.492307 -4.453275
v 2.424903 0.463743 -4.547438
v 2.424903 0.417358 -4.634218
v 2.424903 0.354933 -4.710282
v 2.424903 0.278869 -4.772707
v 2.424903 0.192088 -4.819092
v 2.424903 0.097925 -4.847655
v 2.088478 0.097925 -4.847655
v 2.000000 0.116446 -4.842040
v 2.088478 0.116446 -4.842040
v 2.000000 0.116446 -3.868660
v 2.088478 0.116446 -3.868660
v 4.000000 0.116446 -3.868660
v 3.911523 0.116446 -3.868660
v 4.000000 0.116446 -4.842040
v 3.911523 0.116446 -4.842039
v 3.895038 2.632224 -5.491030
v 2.104962 2.632224 -5.491030
v 2.104962 2.632224 -2.621759
v 3.895038 2.632224 -2.621759
v 3.895038 0.542227 -5.491030
v 2.104962 0.542227 -5.491030
v 2.104962 0.542227 -2.621759
v 3.895038 0.542227 -2.621759
vt 0.500000 0.500000
vt 0.468750 0.500000
vt 0.468750 0.923020
vt 0.500000 0.923020
vt 0.437500 0.500000
vt 0.437500 0.923020
vt 0.406250 0.500000
vt 0.406250 0.923020
vt 0.375000 0.500000
vt 0.375000 0.923020
vt 0.343750 0.500000
vt 0.343750 0.923020
vt 0.312500 0.500000
vt 0.312500 0.923020
vt 0.281250 0.500000
vt 0.281250 0.923020
vt 0.250000 0.500000
vt 0.250000 0.923020
vt 0.218750 0.500000
vt 0.218750 0.923020
vt 0.187500 0.500000
vt 0.187500 0.923020
vt 0.198708 0.923020
vt 0.156250 0.500000
vt 0.156250 0.923020
vt 0.125000 0.500000
vt 0.125000 0.923020
vt 0.135526 0.923020
vt 0.093750 0.500000
vt 0.093750 0.923020
vt 0.111077 0.923020
vt 0.062500 0.500000
vt 0.062500 0.923020
vt 0.031250 0.500000
vt 0.031250 0.923020
vt 0.000000 0.500000
vt 0.000000 0.923020
vt 0.750000 0.490000
vt 0.703179 0.485389
vt 0.658156 0.471731
vt 0.616663 0.449553
vt 0.580295 0.419706
vt 0.550447 0.383337
vt 0.528269 0.341844
vt 0.514612 0.296822
vt 0.510000 0.250000
vt 0.514611 0.203179
vt 0.528269 0.158156
vt 0.550447 0.116663
vt 0.580294 0.080294
vt 0.616663 0.050447
vt 0.658156 0.028269
vt 0.703178 0.014612
vt 0.750000 0.010000
vt 0.750000 0.325697
vt 0.750000 0.407455
vt 0.031250 0.500000
vt 0.000000 0.500000
vt 0.000000 0.923020
vt 0.031250 0.923020
vt 0.750000 0.490000
vt 0.703179 0.485389
vt 0.694323 0.482702
vt 0.694323 0.017298
vt 0.703178 0.014612
vt 0.750000 0.010000
vt 0.000000 0.000000
vt 0.000000 0.571634
vt 0.212451 0.571634
vt 0.212451 1.000000
vt 0.788211 1.000000
vt 0.788211 0.571634
vt 1.000000 0.571634
vt 1.000000 0.000000
vt 0.000000 0.000000
vt 1.000000 0.000000
vt 1.000000 1.000000
vt 0.000000 1.000000
vt 1.000000 1.000000
vt 0.000000 1.000000
vt 1.000000 0.577891
vt 1.000000 0.596423
vt 1.000000 0.626516
vt 1.000000 0.667016
vt 1.000000 0.716364
vt 1.000000 0.772665
vt 1.000000 0.833756
vt 1.000000 0.897287
vt 1.000000 0.960819
vt 1.000000 1.000000
vt 0.000000 1.000000
vt 0.000000 1.000000
vt 0.000000 1.000000
vt 0.000000 1.000000
vt 0.000000 1.000000
vt 0.000000 1.000000
vt 0.000000 1.000000
vt 0.000000 1.000000
vt 0.000000 1.000000
vt 0.000000 1.000000
vt 0.000000 1.000000
vt 0.000000 1.000000
vt 0.000000 1.000000
vt 0.000000 1.000000
vt 0.000000 1.000000
vt 0.000000 1.000000
vt 0.000000 1.000000
vt 0.000000 1.000000
vt 0.000000 1.000000
vt 0.000000 1.000000
vt 0.000000 1.000000
vt 0.000000 1.000000
vt 0.000000 1.000000
vt 1.000000 1.000000
vt 1.000000 1.000000
vt 1.000000 1.000000
vt 1.000000 1.000000
vt 1.000000 1.000000
vt 1.000000 1.000000
vt 1.000000 1.000000
vt 1.000000 1.000000
vt 1.000000 1.000000
vt 0.212451 1.000000
vt 0.212451 1.000000
vt 1.000000 1.000000
vt 0.788211 1.000000
vt 0.788211 1.000000
vt 1.000000 1.000000
vt 1.000000 1.000000
vt 1.000000 1.000000
vt 1.000000 1.000000
vt 1.000000 1.000000
vt 1.000000 1.000000
vt 1.000000 1.000000
vt 1.000000 1.000000
vt 1.000000 1.000000
vt 1.000000 1.000000
vt 1.000000 1.000000
vt 1.000000 1.000000
vt 1.000000 1.000000
vt 1.000000 1.000000
vt 1.000000 1.000000
vt 1.000000 1.000000
vt 1.000000 1.000000
vt 1.000000 1.000000
vt 1.000000 1.000000
vt 0.000000 1.000000
vt 0.000000 1.000000
vt 0.000000 1.000000
vt 0.000000 1.000000
vt 0.000000 1.000000
vt 1.000000 1.000000
vt 1.000000 1.000000
vt 0.000000 1.000000
vt 0.000000 1.000000
vt 1.000000 1.000000
vt 0.000000 0.000000
vt 0.000000 0.000000
vt 0.000000 1.000000
vt 0.000000 1.000000
vt 1.000000 1.000000
vt 1.000000 1.000000
vt 0.000000 1.000000
vt 0.000000 1.000000
vt 0.000000 1.000000
vt 0.000000 1.000000
vt 0.000000 1.000000
vt 1.000000 1.000000
vt 1.000000 1.000000
vt 1.000000 1.000000
vt 0.000000 1.000000
vt 1.000000 1.000000
vt 1.000000 1.000000
vt 1.000000 1.000000
vt 0.000000 1.000000
vt 0.000000 1.000000
vt 0.000000 1.000000
vt 1.000000 1.000000
vt 0.000000 1.000000
vt 0.000000 1.000000
vt 0.218750 0.575658
vt 0.218750 1.000000
vt 0.250000 1.000000
vt 0.250000 0.575658
vt 0.000000 1.000000
vt 0.000000 0.960819
vt 0.000000 0.897288
vt 0.000000 0.833756
vt 0.000000 0.772665
vt 0.000000 0.716364
vt 0.000000 0.667016
vt 0.000000 0.626517
vt 0.000000 0.596423
vt 0.000000 0.577891
vt 0.000000 1.000000
vt 0.000000 1.000000
vt 0.000000 1.000000
vt 0.187500 0.834659
vt 0.187500 0.923020
vt 0.218750 0.923020
vt 0.218750 0.834659
vt 0.437500 0.575658
vt 0.437500 1.000000
vt 0.468750 1.000000
vt 0.468750 0.575658
vt 0.250000 0.010000
vt 0.203178 0.014612
vt 0.158156 0.028269
vt 0.116663 0.050447
vt 0.080294 0.080294
vt 0.050447 0.116663
vt 0.028269 0.158156
vt 0.014611 0.203179
vt 0.010000 0.250000
vt 0.014612 0.296822
vt 0.028269 0.341844
vt 0.050447 0.383337
vt 0.080295 0.419706
vt 0.116663 0.449553
vt 0.158156 0.471731
vt 0.203179 0.485389
vt 0.250000 0.490000
vt 0.250000 0.407455
vt 0.250000 0.325697
vt 0.343750 0.575658
vt 0.343750 1.000000
vt 0.375000 1.000000
vt 0.375000 0.575658
vt 0.125000 0.575658
vt 0.125000 1.000000
vt 0.156250 1.000000
vt 0.156250 0.575658
vt 0.135526 0.575658
vt 1.000000 1.000000
vt 1.000000 1.000000
vt 1.000000 1.000000
vt 1.000000 1.000000
vt 0.406250 0.834659
vt 0.406250 0.923020
vt 0.437500 0.923020
vt 0.437500 0.834659
vt 0.000000 0.575658
vt 0.000000 1.000000
vt 0.031250 1.000000
vt 0.031250 0.575658
vt 0.250000 0.834659
vt 0.250000 0.923020
vt 0.281250 0.923020
vt 0.281250 0.834659
vt 0.062500 1.000000
vt 0.062500 0.575658
vt 0.062500 0.834659
vt 0.062500 0.923020
vt 0.093750 0.923020
vt 0.093750 0.834659
vt 0.093750 0.575658
vt 0.093750 1.000000
vt 0.111077 0.575658
vt 0.281250 1.000000
vt 0.281250 0.575658
vt 0.406250 1.000000
vt 0.406250 0.575658
vt 0.312500 0.575658
vt 0.312500 1.000000
vt 0.312500 0.834659
vt 0.312500 0.923020
vt 0.343750 0.923020
vt 0.343750 0.834659
vt 0.375000 0.923020
vt 0.375000 0.834659
vt 0.187500 0.575658
vt 0.187500 1.000000
vt 0.198708 0.575658
vt 0.156250 0.834659
vt 0.156250 0.923020
vt 0.125000 0.834659
vt 0.125000 0.923020
vt 0.000000 1.000000
vt 0.500000 0.923020
vt 0.500000 0.500000
vt 0.468750 0.500000
vt 0.468750 0.923020
vt 0.788211 1.000000
vt 0.212451 1.000000
vt 0.788211 1.000000
vt 0.212451 1.000000
vt 0.500000 1.000000
vt 0.500000 0.575658
vt 0.000000 0.000000
vt 0.000000 0.000000
vt 0.000000 0.000000
vt 0.000000 0.000000
vt 0.000000 0.000000
vt 0.000000 0.000000
vt 1.000000 1.000000
vt 0.000000 0.000000
vt 0.000000 0.000000
vt 1.000000 1.000000
vt 0.000000 0.000000
vt 1.000000 1.000000
vt 1.000000 1.000000
vt 0.000000 0.000000
vt 0.000000 0.000000
vt 0.000000 0.000000
vt 0.000000 0.000000
vt 0.000000 0.000000
vt 0.000000 0.000000
vt 0.000000 0.000000
vt 0.000000 1.000000
vt 0.000000 1.000000
vt 0.000000 1.000000
vt 0.000000 1.000000
vt 0.000000 1.000000
vt 0.000000 1.000000
vt 0.000000 1.000000
vt 0.000000 1.000000
vt 0.000000 1.000000
vt 0.000000 1.000000
vt 0.000000 1.000000
vt 0.000000 1.000000
vt 0.000000 1.000000
vt 0.000000 0.000000
vt 0.000000 0.000000
vt 0.000000 0.000000
vt 0.000000 0.000000
vt 0.000000 0.000000
vt 0.000000 0.500000
vt 0.000000 0.000000
vt 0.000000 0.500000
vt 0.000000 0.000000
vt 0.000000 0.000000
vt 0.000000 0.000000
vt 0.000000 0.000000
vt 0.000000 0.000000
vt 0.000000 0.000000
vt 0.000000 0.000000
vt 0.000000 0.000000
vt 0.000000 0.000000
vt 0.000000 0.000000
vt 0.000000 0.000000
vt 0.000000 0.000000
vt 0.000000 0.000000
vt 0.000000 0.000000
vt 0.000000 0.000000
vt 0.847162 0.741351
vt 0.000000 0.000000
vt 0.000000 0.000000
vt 0.000000 0.000000
vt 0.000000 0.000000
vt 0.000000 0.000000
vt 0.000000 0.000000
vt 0.000000 0.000000
vt 0.000000 0.000000
vt 0.000000 0.000000
vt 0.000000 0.000000
vt 1.000000 1.000000
vt 1.000000 1.000000
vt 1.000000 1.000000
vt 1.000000 1.000000
vt 0.000000 1.000000
vt 0.000000 1.000000
vn 0.0000 -0.0980 -0.9952
vn 0.0000 -0.2903 -0.9569
vn 0.0000 -0.4714 -0.8819
vn 0.0000 -0.6344 -0.7730
vn 0.0000 -0.7730 -0.6344
vn 0.0000 -0.8819 -0.4714
vn 0.0000 -0.9569 -0.2903
vn 0.0000 -0.9952 -0.0980
vn 0.0000 -0.9952 0.0980
vn 0.0000 -0.9569 0.2903
vn 0.0000 -0.8819 0.4714
vn 0.0000 -0.7730 0.6344
vn -0.0000 -0.6344 0.7730
vn 0.0000 -0.4714 0.8819
vn 0.0000 -0.2903 0.9569
vn -0.0000 -0.0980 0.9952
vn 1.0000 -0.0000 0.0000
vn 0.0000 -1.0000 -0.0000
vn 0.0000 0.9542 0.2992
vn 0.0000 0.1449 0.9894
vn 0.0000 0.0000 1.0000
vn -1.0000 0.0000 0.0000
vn -0.0000 0.0000 -1.0000
vn 0.0000 1.0000 0.0000
vn 0.0000 -0.9984 0.0574
vn -0.0685 0.1494 0.9864
vn 0.0685 0.1494 0.9864
vn 0.0000 0.0569 0.9984
vn 0.0000 0.9894 -0.1449
vn 0.0000 0.9656 -0.2602
vn 0.0451 -0.9959 0.0784
vn 0.6957 -0.0553 -0.7162
vn 0.0000 -0.9894 0.1449
vn -0.0451 -0.9959 0.0784
vn -0.6957 -0.0553 -0.7162
vn 0.0000 0.9952 0.0980
vn -0.0000 0.9569 0.2903
vn -0.0000 0.8819 0.4714
vn 0.0000 0.7730 0.6344
vn 0.0000 0.6344 0.7730
vn -0.0000 0.4714 0.8819
vn 0.0000 0.4714 -0.8819
vn -0.0000 0.6344 -0.7730
vn -0.0000 0.7730 -0.6344
vn 0.0000 0.8819 -0.4714
vn -0.0000 0.9569 -0.2903
vn -0.0000 0.9952 -0.0980
vn 0.0000 -0.2901 0.9570
vn 0.0000 -0.2904 -0.9569
vn 0.0000 0.2903 -0.9569
vn 0.0000 0.2903 0.9569
vn 0.0000 -0.2902 0.9570
usemtl None
s off
f 2/1/1 3/2/1 87/3/1 90/4/1
f 3/2/2 4/5/2 89/6/2 87/3/2
f 4/5/3 5/7/3 88/8/3 89/6/3
f 5/7/4 6/9/4 86/10/4 88/8/4
f 6/9/5 7/11/5 85/12/5 86/10/5
f 7/11/6 8/13/6 97/14/6 85/12/6
f 8/13/7 9/15/7 99/16/7 97/14/7
f 9/15/8 10/17/8 98/18/8 99/16/8
f 10/17/9 11/19/9 100/20/9 98/18/9
f 11/19/10 12/21/10 108/22/10 109/23/10 100/20/10
f 12/21/11 13/24/11 107/25/11 108/22/11
f 13/24/12 14/26/12 106/27/12 105/28/12 107/25/12
f 14/26/13 15/29/13 110/30/13 111/31/13 106/27/13
f 15/29/14 16/32/14 129/33/14 110/30/14
f 16/32/15 17/34/15 125/35/15 129/33/15
f 17/34/16 1/36/16 124/37/16 125/35/16
f 1/38/17 17/39/17 16/40/17 15/41/17 14/42/17 13/43/17 12/44/17 11/45/17 10/46/17 9/47/17 8/48/17 7/49/17 6/50/17 5/51/17 4/52/17 3/53/17 2/54/17 131/55/17 130/56/17
f 19/57/16 193/58/16 187/59/16 188/60/16
f 193/61/17 19/62/17 189/63/17 141/64/17 194/65/17 18/66/17
f 39/67/18 92/68/18 21/69/18 113/70/18 131/71/18 2/72/18 90/73/18 40/74/18
f 41/75/19 42/76/19 44/77/19 43/78/19
f 43/78/20 44/77/20 71/79/20 72/80/20
f 39/67/21 40/74/21 42/76/21 41/75/21
f 40/74/17 90/73/17 87/81/17 89/82/17 88/83/17 86/84/17 85/85/17 97/86/17 99/87/17 98/88/17 100/89/17 109/90/17 44/77/17 42/76/17
f 60/91/22 59/92/22 50/93/22 48/94/22 192/95/22 191/96/22 224/97/22 182/98/22 178/99/22 180/100/22 186/101/22 184/102/22 164/103/22 162/104/22 166/105/22 168/106/22 143/107/22 149/108/22 145/109/22 147/110/22 226/111/22 123/112/22 122/113/22
f 44/77/17 109/90/17 108/114/17 107/115/17 105/116/17 45/117/17
f 49/118/23 47/119/23 51/120/23 53/121/23
f 61/122/18 60/91/18 122/113/18 38/123/18 37/124/18 192/95/18 48/94/18 47/119/18 187/125/18 193/126/18 18/127/18 121/128/18
f 62/129/17 61/122/17 121/128/17 136/130/17 228/131/17 134/132/17 132/133/17 139/134/17 137/135/17 157/136/17 151/137/17 153/138/17 155/139/17 159/140/17 169/141/17 171/142/17 173/143/17 175/144/17 230/145/17 188/146/17 187/125/17 47/119/17 49/118/17
f 50/93/24 59/92/24 234/147/24 233/148/24
f 50/93/23 49/118/23 53/121/23 54/149/23
f 48/94/23 50/93/23 54/149/23 52/150/23
f 47/119/23 48/94/23 52/150/23 51/120/23
f 46/151/24 45/117/24 62/129/24 59/92/24
f 61/122/17 62/129/17 69/152/17 68/153/17
f 59/92/22 60/91/22 67/154/22 70/155/22
f 82/156/25 77/157/25 78/158/25 83/159/25
f 63/160/24 66/161/24 68/153/24 67/154/24
f 62/129/17 45/117/17 65/162/17 69/152/17
f 60/91/22 126/163/22 127/164/22 128/165/22 120/166/22 115/167/22 63/160/22 67/154/22
f 45/117/17 105/116/17 106/168/17 111/169/17 66/161/17 80/170/17 65/162/17
f 46/151/22 59/92/22 70/155/22 64/171/22
f 68/153/21 69/152/21 70/155/21 67/154/21
f 71/79/22 73/172/22 77/173/22 75/174/22
f 44/77/26 45/117/26 73/172/26 71/79/26
f 46/151/27 43/78/27 72/80/27 74/175/27
f 45/117/28 46/151/28 74/175/28 73/172/28
f 72/80/29 71/79/29 75/174/29 76/176/29
f 74/175/17 72/80/17 76/176/17 78/177/17
f 81/178/18 82/156/18 83/159/18 84/179/18
f 63/160/23 79/180/23 80/170/23 66/161/23
f 69/152/18 65/162/18 82/156/18 81/178/18
f 70/155/18 69/152/18 81/178/18 84/179/18
f 64/171/18 70/155/18 84/179/18 83/159/18
f 75/174/30 80/170/30 79/180/30 76/176/30
f 83/159/31 78/158/31 64/171/31
f 79/180/32 64/171/32 78/177/32 76/176/32
f 74/175/33 78/177/33 77/157/33 73/172/33
f 77/157/34 82/156/34 65/162/34
f 75/174/35 77/157/35 65/162/35 80/170/35
f 103/181/9 30/182/9 29/183/9 102/184/9
f 116/185/22 103/186/22 102/187/22 101/188/22 104/189/22 93/190/22 94/191/22 95/192/22 96/193/22 91/194/22 92/68/22 39/67/22 41/75/22 43/78/22
f 119/195/22 118/196/22 117/197/22 116/185/22 43/78/22 46/151/22
f 160/198/10 159/199/10 155/200/10 156/201/10
f 96/202/2 23/203/2 22/204/2 91/205/2
f 21/206/22 22/207/22 23/208/22 24/209/22 25/210/22 26/211/22 27/212/22 28/213/22 29/214/22 30/215/22 31/216/22 32/217/22 33/218/22 34/219/22 35/220/22 36/221/22 20/222/22 112/223/22 113/224/22
f 93/225/5 26/226/5 25/227/5 94/228/5
f 114/229/12 33/230/12 32/231/12 118/232/12 119/233/12
f 111/169/17 110/234/17 129/235/17 125/236/17 124/237/17 61/122/17 68/153/17 66/161/17
f 133/238/3 132/239/3 134/240/3 135/241/3
f 126/242/16 20/243/16 36/244/16 127/245/16
f 154/246/8 153/247/8 151/248/8 152/249/8
f 127/245/15 36/244/15 35/250/15 128/251/15
f 176/252/14 175/253/14 173/254/14 174/255/14
f 120/256/13 34/257/13 33/230/13 114/229/13 115/258/13
f 102/184/8 29/183/8 28/259/8 101/260/8
f 94/228/4 25/227/4 24/261/4 95/262/4
f 104/263/6 27/264/6 26/226/6 93/225/6
f 95/262/3 24/261/3 23/203/3 96/202/3
f 158/265/6 157/266/6 137/267/6 138/268/6
f 138/268/5 137/267/5 139/269/5 140/270/5
f 156/201/9 155/200/9 153/247/9 154/246/9
f 128/251/14 35/250/14 34/257/14 120/256/14
f 117/271/10 31/272/10 30/182/10 103/181/10 116/273/10
f 118/232/11 32/231/11 31/272/11 117/271/11
f 170/274/11 169/275/11 159/199/11 160/198/11
f 140/270/4 139/269/4 132/239/4 133/238/4
f 172/276/12 171/277/12 169/275/12 170/274/12
f 115/167/22 114/278/22 119/195/22 46/151/22 64/171/22 79/180/22 63/160/22
f 121/279/1 18/280/1 194/281/1 136/282/1
f 130/283/18 131/71/18 113/70/18 112/284/18
f 174/255/13 173/254/13 171/277/13 172/276/13
f 101/260/7 28/259/7 27/264/7 104/263/7
f 152/249/7 151/248/7 157/266/7 158/265/7
f 124/237/18 1/285/18 130/283/18 112/284/18 20/286/18 126/163/18 60/91/18 61/122/18
f 91/205/1 22/204/1 21/287/1 92/288/1
f 201/289/36 200/290/36 152/291/36 154/292/36
f 200/290/37 199/293/37 158/294/37 152/291/37
f 138/295/38 158/294/38 199/293/38 198/296/38
f 198/296/39 197/297/39 140/298/39 138/295/39
f 197/297/40 196/299/40 133/300/40 140/298/40
f 135/301/41 133/300/41 196/299/41 195/302/41
f 176/252/42 207/303/42 206/304/42 174/255/42
f 174/255/43 206/304/43 205/305/43 172/276/43
f 172/276/44 205/305/44 204/306/44 170/274/44
f 170/274/45 204/306/45 203/307/45 160/198/45
f 160/198/46 203/307/46 202/308/46 156/201/46
f 156/201/47 202/308/47 201/289/47 154/292/47
f 141/64/22 195/302/22 196/299/22 197/297/22 198/296/22 199/293/22 200/290/22 201/289/22 202/308/22 203/307/22 204/306/22 205/305/22 206/304/22 207/303/22 189/63/22
f 177/309/14 178/99/14 182/98/14 181/310/14
f 177/309/13 179/311/13 180/100/13 178/99/13
f 179/311/12 185/312/12 186/101/12 180/100/12
f 185/312/11 183/313/11 184/102/11 186/101/11
f 164/103/10 184/102/10 183/313/10 163/314/10
f 162/104/9 164/103/9 163/314/9 161/315/9
f 166/105/8 162/104/8 161/315/8 165/316/8
f 167/317/7 168/106/7 166/105/7 165/316/7
f 143/107/6 168/106/6 167/317/6 142/318/6
f 142/318/5 148/319/5 149/108/5 143/107/5
f 144/320/4 145/109/4 149/108/4 148/319/4
f 144/320/3 146/321/3 147/110/3 145/109/3
f 144/322/41 146/323/41 209/324/41 210/325/41
f 38/123/1 122/113/1 123/112/1 208/326/1
f 224/97/48 191/96/48 223/327/48 225/328/48
f 123/112/49 226/111/49 227/329/49 150/330/49 208/326/49
f 150/330/22 190/331/22 222/332/22 37/124/22 38/123/22 208/326/22
f 37/124/16 222/332/16 223/327/16 191/96/16 192/95/16
f 210/325/17 209/324/17 150/330/17 190/331/17 221/333/17 220/334/17 219/335/17 218/336/17 217/337/17 216/338/17 215/339/17 214/340/17 213/341/17 212/342/17 211/343/17
f 144/322/40 210/325/40 211/343/40 148/319/40
f 148/319/39 211/343/39 212/342/39 142/318/39
f 142/318/38 212/342/38 213/341/38 167/317/38
f 167/317/37 213/341/37 214/340/37 165/316/37
f 165/316/36 214/340/36 215/339/36 161/315/36
f 161/315/47 215/339/47 216/338/47 163/314/47
f 163/314/46 216/338/46 217/337/46 183/313/46
f 183/313/45 217/337/45 218/336/45 185/312/45
f 185/312/44 218/336/44 219/335/44 179/311/44
f 179/311/43 219/335/43 220/334/43 177/309/43
f 177/309/42 220/334/42 221/333/42 181/310/42
f 190/331/24 150/330/24 141/64/24 189/63/24
f 182/98/15 224/97/15 225/328/15 181/310/15
f 190/331/48 225/328/48 223/327/48 222/332/48
f 181/310/50 221/333/50 190/331/50 225/328/50
f 226/111/2 147/110/2 146/321/2 227/329/2
f 146/321/51 227/329/51 150/330/51 209/324/51
f 134/132/2 228/131/2 229/344/2 135/241/2
f 228/131/49 136/282/49 194/65/49 141/64/49 229/344/49
f 141/64/51 229/344/51 135/241/51 195/302/51
f 189/63/52 19/57/52 188/146/52 230/145/52 231/345/52
f 230/145/15 175/253/15 176/252/15 231/345/15
f 189/63/50 207/303/50 176/252/50 231/345/50
f 51/346/24 52/347/24 225/328/24 190/331/24 189/348/24 231/349/24
f 229/344/24 141/350/24 150/330/24 227/351/24 56/352/24 55/353/24
f 53/354/23 51/346/23 52/347/23 54/355/23
f 235/356/22 232/357/22 236/358/22 239/359/22
f 59/92/24 62/129/24 235/356/24 234/147/24
f 49/118/24 50/93/24 233/148/24 232/357/24
f 62/129/24 49/118/24 232/357/24 235/356/24
f 238/360/24 239/359/24 236/358/24 237/361/24
f 232/357/21 233/148/21 237/361/21 236/358/21
f 234/147/23 235/356/23 239/359/23 238/360/23
f 233/148/17 234/147/17 238/360/17 237/361/17
l 56 58
l 57 55
