# Blender v2.80 (sub 41) OBJ File: 'testbed.blend'
# www.blender.org
mtllib road_hill.mtl
o Plane.001_Plane
v -3.048000 0.000000 0.000000
v 3.048000 0.000000 0.000000
v 3.048000 0.304800 0.000000
v -3.048000 0.304800 0.000000
v -3.048000 3.048000 42.672001
v 3.048000 3.048000 42.672001
v 3.048000 3.352800 42.672001
v -3.048000 3.352800 42.672001
v -3.048000 0.304800 1.524000
v -3.048000 0.304800 3.048000
v -3.048000 0.304800 4.572001
v -3.048000 0.304800 6.096001
v -3.048000 0.332256 7.612151
v -3.048000 0.444398 9.128301
v -3.048000 0.641226 10.644451
v -3.048000 0.838054 12.160601
v -3.048000 0.992539 13.676751
v -3.048000 1.189366 15.192902
v -3.048000 1.386194 16.709051
v -3.048000 1.540679 18.225201
v -3.048000 1.695163 19.741352
v -3.048000 1.849648 21.257502
v -3.048000 2.004133 22.773651
v -3.048000 2.158618 24.289803
v -3.048000 2.313103 25.805952
v -3.048000 2.467588 27.322102
v -3.048000 2.664415 28.838251
v -3.048000 2.818900 30.354403
v -3.048000 3.015728 31.870550
v -3.048000 3.170212 33.386696
v -3.048000 3.290823 34.902851
v -3.048000 3.352633 36.568867
v -3.048000 3.352800 38.099998
v -3.048000 3.352800 39.624001
v -3.048000 3.352800 41.148003
v 3.048000 3.352800 41.148003
v 3.048000 3.352800 39.624001
v 3.048000 3.352800 38.100002
v 3.048000 3.352633 36.568871
v 3.048000 3.290823 34.902851
v 3.048000 3.170212 33.386696
v 3.048000 3.015728 31.870550
v 3.048000 2.818900 30.354401
v 3.048000 2.622072 28.838249
v 3.048000 2.467587 27.322100
v 3.048000 2.313103 25.805950
v 3.048000 2.158618 24.289801
v 3.048000 2.004133 22.773649
v 3.048000 1.849648 21.257500
v 3.048000 1.695163 19.741348
v 3.048000 1.540679 18.225201
v 3.048000 1.386194 16.709049
v 3.048000 1.189366 15.192900
v 3.048000 0.992538 13.676749
v 3.048000 0.838054 12.160599
v 3.048000 0.641226 10.644449
v 3.048000 0.444398 9.128299
v 3.048000 0.332256 7.612149
v 3.048000 0.304800 6.095999
v 3.048000 0.304800 4.572000
v 3.048000 0.304800 3.048000
v 3.048000 0.304800 1.524000
v -3.048000 0.000000 1.524000
v -3.048000 0.000000 3.048000
v -3.048000 0.000000 4.572001
v -3.048000 0.001570 6.126898
v -3.048000 0.029026 7.643048
v -3.048000 0.141168 9.159198
v -3.048000 0.337996 10.675348
v -3.048000 0.534824 12.191498
v -3.048000 0.689309 13.707648
v -3.048000 0.886136 15.223799
v -3.048000 1.082964 16.739948
v -3.048000 1.237449 18.256100
v -3.048000 1.391933 19.772247
v -3.048000 1.546418 21.288399
v -3.048000 1.700903 22.804548
v -3.048000 1.855388 24.320700
v -3.048000 2.009873 25.836849
v -3.048000 2.164358 27.352999
v -3.048000 2.318842 28.869148
v -3.048000 2.515670 30.385300
v -3.048000 2.712498 31.901447
v -3.048000 2.866982 33.417595
v -3.048000 2.987593 34.933746
v -3.048000 3.048167 36.583134
v -3.048000 3.048000 38.099998
v -3.048000 3.048000 39.624001
v -3.048000 3.048000 41.148003
v 3.048000 3.048000 41.148003
v 3.048000 3.048000 39.624001
v 3.048000 3.048000 38.100002
v 3.048000 3.048167 36.583138
v 3.048000 2.987593 34.933746
v 3.048000 2.866982 33.417595
v 3.048000 2.712498 31.901447
v 3.048000 2.515670 30.385298
v 3.048000 2.318842 28.869146
v 3.048000 2.164357 27.352997
v 3.048000 2.009873 25.836847
v 3.048000 1.855388 24.320698
v 3.048000 1.700903 22.804546
v 3.048000 1.588761 21.288397
v 3.048000 1.391933 19.772247
v 3.048000 1.237448 18.256096
v 3.048000 1.082964 16.739946
v 3.048000 0.886136 15.223797
v 3.048000 0.689308 13.707646
v 3.048000 0.534823 12.191496
v 3.048000 0.337996 10.675346
v 3.048000 0.141168 9.159196
v 3.048000 0.029026 7.643046
v 3.048000 0.001570 6.126896
v 3.048000 0.000000 4.572000
v 3.048000 0.000000 3.048000
v 3.048000 0.000000 1.524000
vt 0.000000 0.000000
vt 0.000000 0.000000
vt 0.000000 0.000000
vt 0.000000 0.000000
vt 0.000000 0.000000
vt 0.000000 0.000000
vt 0.000000 0.000000
vt 0.000000 0.000000
vt 0.000000 0.000000
vt 0.000000 0.000000
vt 0.000000 0.000000
vt 0.000000 0.000000
vt 0.000000 0.000000
vt 0.000000 0.000000
vt 0.000000 0.000000
vt 0.000000 0.000000
vt 0.000000 0.000000
vt 0.000000 0.000000
vt 0.000000 0.000000
vt 0.000000 0.000000
vt 0.000000 0.000000
vt 0.000000 0.000000
vt 0.000000 0.000000
vt 0.000000 0.000000
vt 0.000000 0.000000
vt 0.000000 0.000000
vt 0.000000 0.000000
vt 0.000000 0.000000
vt 0.000000 0.000000
vt 0.000000 0.000000
vt 0.000000 0.000000
vt 0.000000 0.000000
vt 0.000000 0.000000
vt 0.000000 0.000000
vt 0.000000 0.000000
vt 0.000000 0.000000
vt 0.000000 0.000000
vt 0.000000 0.000000
vt 0.000000 0.000000
vt 0.000000 0.000000
vt 0.000000 0.000000
vt 0.000000 0.000000
vt 0.000000 0.000000
vt 0.000000 0.000000
vt 0.000000 0.000000
vt 0.000000 0.000000
vt 0.000000 0.000000
vt 0.000000 0.000000
vt 0.000000 0.000000
vt 0.000000 0.000000
vt 0.000000 0.000000
vt 0.000000 0.000000
vt 0.000000 0.000000
vt 0.000000 0.000000
vt 0.000000 0.000000
vt 0.000000 0.000000
vt 0.000000 0.000000
vt 0.000000 0.000000
vt 0.000000 0.000000
vt 0.000000 0.000000
vt 0.000000 0.000000
vt 0.000000 0.000000
vt 0.000000 0.000000
vt 0.000000 0.000000
vt 0.000000 0.000000
vt 0.000000 0.000000
vt 0.000000 0.000000
vt 0.000000 0.000000
vt 0.000000 0.000000
vt 0.000000 0.000000
vt 0.000000 0.000000
vt 0.000000 0.000000
vt 0.000000 0.000000
vt 0.000000 0.000000
vt 0.000000 0.000000
vt 0.000000 0.000000
vt 0.000000 0.000000
vt 0.000000 0.000000
vt 0.000000 0.000000
vt 0.000000 0.000000
vt 0.000000 0.000000
vt 0.000000 0.000000
vt 0.000000 0.000000
vt 0.000000 0.000000
vt 0.000000 0.000000
vt 0.000000 0.000000
vt 0.000000 0.000000
vt 0.000000 0.000000
vt 0.000000 0.000000
vt 0.000000 0.000000
vt 0.000000 0.000000
vt 0.000000 0.000000
vt 0.000000 0.000000
vt 0.000000 0.000000
vt 0.000000 0.000000
vt 0.000000 0.000000
vt 0.000000 0.000000
vt 0.000000 0.000000
vt 0.000000 0.000000
vt 0.000000 0.000000
vt 0.000000 0.000000
vt 0.000000 0.000000
vt 0.000000 0.000000
vt 0.000000 0.000000
vt 0.000000 0.000000
vt 0.000000 0.000000
vt 0.000000 0.000000
vt 0.000000 0.000000
vt 0.000000 0.000000
vt 0.000000 0.000000
vt 0.000000 0.000000
vt 0.000000 0.000000
vt 0.000000 0.000000
vt 0.000000 0.000000
vt 0.000000 0.000000
vt 0.000000 0.000000
vn 0.0000 0.0000 -1.0000
vn 0.0000 0.0000 1.0000
vn 0.0000 1.0000 0.0000
vn -1.0000 0.0000 0.0000
vn 1.0000 0.0000 0.0000
vn 0.0000 -1.0000 0.0000
vn -0.0000 -1.0000 0.0010
vn -0.0000 -0.9998 0.0181
vn -0.0000 -0.9973 0.0738
vn 0.0000 -0.9917 0.1287
vn -0.0000 -0.9948 0.1014
vn 0.0034 -0.9933 0.1151
vn 0.0035 -0.9962 0.0876
vn 0.0000 -0.9969 0.0793
vn -0.0000 -0.9993 0.0367
vn 0.0000 -1.0000 -0.0001
vn 0.0000 0.9998 -0.0181
vn 0.0000 0.9973 -0.0738
vn -0.0000 0.9917 -0.1287
vn -0.0000 0.9948 -0.1014
vn 0.0034 0.9933 -0.1151
vn 0.0000 0.9969 -0.0793
vn 0.0000 0.9993 -0.0371
vn 0.0000 1.0000 -0.0001
usemtl None
s off
f 1/1/1 4/2/1 3/3/1 2/4/1
f 5/5/2 6/6/2 7/7/2 8/8/2
f 36/9/3 35/10/3 8/8/3 7/7/3
f 35/10/4 89/11/4 5/5/4 8/8/4
f 90/12/5 36/9/5 7/7/5 6/6/5
f 89/11/6 90/12/6 6/6/6 5/5/6
f 1/1/6 2/4/6 116/13/6 63/14/6
f 63/14/6 116/13/6 115/15/6 64/16/6
f 64/16/6 115/15/6 114/17/6 65/18/6
f 65/18/7 114/17/7 113/19/7 66/20/7
f 66/20/8 113/19/8 112/21/8 67/22/8
f 67/22/9 112/21/9 111/23/9 68/24/9
f 68/24/10 111/23/10 110/25/10 69/26/10
f 69/26/10 110/25/10 109/27/10 70/28/10
f 70/28/11 109/27/11 108/29/11 71/30/11
f 71/30/10 108/29/10 107/31/10 72/32/10
f 72/32/10 107/31/10 106/33/10 73/34/10
f 73/34/11 106/33/11 105/35/11 74/36/11
f 74/36/11 105/35/11 104/37/11 75/38/11
f 75/38/12 104/37/12 103/39/12 76/40/12
f 76/40/13 103/39/13 102/41/13 77/42/13
f 77/42/11 102/41/11 101/43/11 78/44/11
f 78/44/11 101/43/11 100/45/11 79/46/11
f 79/46/11 100/45/11 99/47/11 80/48/11
f 80/48/11 99/47/11 98/49/11 81/50/11
f 81/50/10 98/49/10 97/51/10 82/52/10
f 82/52/10 97/51/10 96/53/10 83/54/10
f 83/54/11 96/53/11 95/55/11 84/56/11
f 84/56/14 95/55/14 94/57/14 85/58/14
f 85/58/15 94/57/15 93/59/15 86/60/15
f 86/60/16 93/59/16 92/61/16 87/62/16
f 87/62/6 92/61/6 91/63/6 88/64/6
f 88/64/6 91/63/6 90/12/6 89/11/6
f 2/4/5 3/3/5 62/65/5 116/13/5
f 116/13/5 62/65/5 61/66/5 115/15/5
f 115/15/5 61/66/5 60/67/5 114/17/5
f 114/17/5 60/67/5 59/68/5 113/19/5
f 113/19/5 59/68/5 58/69/5 112/21/5
f 112/21/5 58/69/5 57/70/5 111/23/5
f 111/23/5 57/70/5 56/71/5 110/25/5
f 110/25/5 56/71/5 55/72/5 109/27/5
f 109/27/5 55/72/5 54/73/5 108/29/5
f 108/29/5 54/73/5 53/74/5 107/31/5
f 107/31/5 53/74/5 52/75/5 106/33/5
f 106/33/5 52/75/5 51/76/5 105/35/5
f 105/35/5 51/76/5 50/77/5 104/37/5
f 104/37/5 50/77/5 49/78/5 103/39/5
f 103/39/5 49/78/5 48/79/5 102/41/5
f 102/41/5 48/79/5 47/80/5 101/43/5
f 101/43/5 47/80/5 46/81/5 100/45/5
f 100/45/5 46/81/5 45/82/5 99/47/5
f 99/47/5 45/82/5 44/83/5 98/49/5
f 98/49/5 44/83/5 43/84/5 97/51/5
f 97/51/5 43/84/5 42/85/5 96/53/5
f 96/53/5 42/85/5 41/86/5 95/55/5
f 95/55/5 41/86/5 40/87/5 94/57/5
f 94/57/5 40/87/5 39/88/5 93/59/5
f 93/59/5 39/88/5 38/89/5 92/61/5
f 92/61/5 38/89/5 37/90/5 91/63/5
f 91/63/5 37/90/5 36/9/5 90/12/5
f 4/2/4 1/1/4 63/14/4 9/91/4
f 9/91/4 63/14/4 64/16/4 10/92/4
f 10/92/4 64/16/4 65/18/4 11/93/4
f 11/93/4 65/18/4 66/20/4 12/94/4
f 12/94/4 66/20/4 67/22/4 13/95/4
f 13/95/4 67/22/4 68/24/4 14/96/4
f 14/96/4 68/24/4 69/26/4 15/97/4
f 15/97/4 69/26/4 70/28/4 16/98/4
f 16/98/4 70/28/4 71/30/4 17/99/4
f 17/99/4 71/30/4 72/32/4 18/100/4
f 18/100/4 72/32/4 73/34/4 19/101/4
f 19/101/4 73/34/4 74/36/4 20/102/4
f 20/102/4 74/36/4 75/38/4 21/103/4
f 21/103/4 75/38/4 76/40/4 22/104/4
f 22/104/4 76/40/4 77/42/4 23/105/4
f 23/105/4 77/42/4 78/44/4 24/106/4
f 24/106/4 78/44/4 79/46/4 25/107/4
f 25/107/4 79/46/4 80/48/4 26/108/4
f 26/108/4 80/48/4 81/50/4 27/109/4
f 27/109/4 81/50/4 82/52/4 28/110/4
f 28/110/4 82/52/4 83/54/4 29/111/4
f 29/111/4 83/54/4 84/56/4 30/112/4
f 30/112/4 84/56/4 85/58/4 31/113/4
f 31/113/4 85/58/4 86/60/4 32/114/4
f 32/114/4 86/60/4 87/62/4 33/115/4
f 33/115/4 87/62/4 88/64/4 34/116/4
f 34/116/4 88/64/4 89/11/4 35/10/4
f 3/3/3 4/2/3 9/91/3 62/65/3
f 62/65/3 9/91/3 10/92/3 61/66/3
f 61/66/3 10/92/3 11/93/3 60/67/3
f 60/67/3 11/93/3 12/94/3 59/68/3
f 59/68/17 12/94/17 13/95/17 58/69/17
f 58/69/18 13/95/18 14/96/18 57/70/18
f 57/70/19 14/96/19 15/97/19 56/71/19
f 56/71/19 15/97/19 16/98/19 55/72/19
f 55/72/20 16/98/20 17/99/20 54/73/20
f 54/73/19 17/99/19 18/100/19 53/74/19
f 53/74/19 18/100/19 19/101/19 52/75/19
f 52/75/20 19/101/20 20/102/20 51/76/20
f 51/76/20 20/102/20 21/103/20 50/77/20
f 50/77/20 21/103/20 22/104/20 49/78/20
f 49/78/20 22/104/20 23/105/20 48/79/20
f 48/79/20 23/105/20 24/106/20 47/80/20
f 47/80/20 24/106/20 25/107/20 46/81/20
f 46/81/20 25/107/20 26/108/20 45/82/20
f 45/82/21 26/108/21 27/109/21 44/83/21
f 44/83/21 27/109/21 28/110/21 43/84/21
f 43/84/19 28/110/19 29/111/19 42/85/19
f 42/85/20 29/111/20 30/112/20 41/86/20
f 41/86/22 30/112/22 31/113/22 40/87/22
f 40/87/23 31/113/23 32/114/23 39/88/23
f 39/88/24 32/114/24 33/115/24 38/89/24
f 38/89/3 33/115/3 34/116/3 37/90/3
f 37/90/3 34/116/3 35/10/3 36/9/3
