# Blender v2.80 (sub 41) OBJ File: ''
# www.blender.org
mtllib hedge_middle.mtl
o Cube_Cube.003
v 1.000000 0.261314 0.994021
v 1.000000 2.168520 0.748236
v -1.000000 2.168520 0.748236
v -1.000000 0.261314 0.994021
v 1.000000 0.214917 -0.953219
v 1.000000 0.261314 -0.994021
v 1.000000 2.168520 -0.748236
v 1.000000 2.214917 -0.695476
v 1.000000 2.214917 0.695476
v 1.000000 0.214917 0.953219
v -1.000000 2.214917 -0.695476
v -1.000000 2.214917 0.695476
v -1.000000 0.214917 0.953219
v -1.000000 2.168520 -0.748236
v -1.000000 0.261314 -0.994021
v -1.000000 0.214917 -0.953219
v -0.016112 2.242685 0.286911
v 0.498850 2.214917 0.332040
v -0.550444 2.249624 0.299229
v -1.000000 2.214917 0.332040
v 1.000000 2.214917 0.332040
v -1.000000 2.214917 -0.329656
v 0.498850 2.214917 -0.329656
v 1.000000 2.214917 -0.329656
v -0.558767 2.214917 -0.379317
v 0.000000 2.214917 -0.329656
v 0.000000 2.214917 0.005853
v 0.524993 2.167934 0.009585
v -0.464963 2.214917 0.005853
v -1.000000 2.214917 0.005853
v 1.000000 2.214917 0.005853
v -1.000000 1.691718 0.809683
v -0.531178 1.691718 0.765540
v 0.498850 1.691718 0.743468
v 0.000000 1.691718 0.809683
v 1.000000 1.691718 0.809683
v 0.000000 0.738115 0.932575
v 0.515403 0.738115 1.026379
v -0.464963 0.738115 0.932575
v 1.000000 0.738115 0.932575
v -1.000000 0.738115 0.932575
v -0.033107 0.738116 -0.965682
v 0.449189 0.738116 -0.954646
v -0.464963 0.738116 -0.932575
v 1.000000 0.738116 -0.932575
v -1.000000 0.738116 -0.932575
v -0.464963 1.691719 -0.809682
v -1.000000 1.691719 -0.809682
v 0.498850 1.691719 -0.809682
v 0.029616 1.701199 -0.780253
v 1.000000 1.691719 -0.809682
v -0.027589 1.214917 -0.876646
v 0.614725 1.214917 -0.871128
v -0.529433 1.185389 -0.951937
v -1.000000 1.214917 -0.871128
v 1.000000 1.214917 -0.871128
v 0.000000 1.214917 0.871129
v 0.498850 1.214917 0.871129
v -0.464963 1.214917 0.992522
v -1.000000 1.214917 0.871129
v 1.000000 1.214917 0.871129
v -0.464963 0.214917 0.953219
v -0.464963 0.214917 -0.953219
v -0.464963 2.168520 -0.748236
v -0.468408 0.356680 -1.040711
v -0.464963 2.214917 0.695476
v -0.464963 2.214917 -0.695476
v -0.464963 2.168520 0.748236
v -0.523576 0.315960 0.940342
v 0.498850 0.261314 0.994021
v 0.498850 2.168520 0.748236
v 0.610838 2.259089 -0.565405
v 0.513235 0.144831 -0.967650
v 0.498850 0.214917 0.953219
v 0.498850 2.214917 0.695476
v 0.498850 0.261314 -0.994021
v 0.498850 2.168520 -0.748236
v 0.000000 0.214917 0.953219
v 0.004112 0.165237 -0.965488
v 0.000000 2.168520 -0.748236
v -0.019811 0.341825 -0.978545
v 0.022071 2.214917 0.518905
v -0.077250 2.214917 -0.601672
v 0.000000 2.168520 0.748236
v 0.012007 0.325363 0.958030
vn -0.0010 0.1852 0.9827
vn 0.0144 0.5316 0.8469
vn -0.6285 0.3485 0.6954
vn -0.7150 0.1285 0.6872
vn 0.6774 -0.6092 -0.4123
vn 0.6172 -0.1103 -0.7790
vn 0.7149 0.0884 -0.6936
vn 0.7113 0.0964 -0.6963
vn 0.7071 0.0904 -0.7013
vn 0.6457 0.4261 -0.6337
vn 0.6319 0.7453 -0.2124
vn 0.7101 0.7020 0.0549
vn 0.6909 0.7230 -0.0008
vn 0.6989 0.7147 -0.0265
vn 0.6356 0.7223 0.2724
vn 0.6247 0.3431 0.7015
vn 0.6845 0.0933 0.7230
vn 0.7131 0.1464 0.6856
vn 0.7410 0.0860 0.6659
vn 0.6418 -0.2609 0.7211
vn 0.6418 -0.6956 0.3229
vn -0.0141 0.9999 -0.0061
vn -0.7200 0.6940 -0.0023
vn -0.6405 0.7116 0.2888
vn 0.0161 0.9526 0.3039
vn -0.6762 -0.5621 0.4763
vn -0.5779 -0.0410 0.8150
vn -0.7196 0.0262 0.6939
vn -0.7427 0.0988 0.6623
vn -0.7138 0.7000 -0.0214
vn -0.7071 0.7071 0.0000
vn -0.6356 0.7223 -0.2724
vn -0.6356 0.3625 -0.6816
vn -0.7203 0.1163 -0.6838
vn -0.7345 0.0873 -0.6730
vn -0.7323 0.0800 -0.6763
vn -0.6270 -0.1917 -0.7551
vn -0.6328 -0.6845 -0.3618
vn -0.0130 0.1300 -0.9914
vn -0.0226 0.5846 -0.8110
vn -0.0136 0.9602 0.2789
vn 0.0117 0.9864 0.1642
vn 0.0096 0.6151 0.7884
vn -0.0160 0.5234 0.8519
vn -0.0060 0.9990 -0.0442
vn 0.0327 0.9987 -0.0393
vn 0.0314 0.9992 -0.0229
vn 0.0039 0.9999 -0.0130
vn 0.0125 0.9993 -0.0350
vn 0.0132 0.9556 -0.2944
vn 0.0000 1.0000 0.0000
vn 0.0008 0.9844 -0.1757
vn -0.0003 0.9991 0.0416
vn 0.0038 0.9874 -0.1581
vn -0.0009 0.9970 0.0768
vn 0.0072 0.1441 0.9895
vn 0.0447 0.1802 0.9826
vn 0.0406 0.1596 0.9863
vn 0.0001 0.1265 0.9920
vn -0.0003 0.2081 0.9781
vn 0.0264 -0.0145 0.9995
vn 0.0105 0.0288 0.9995
vn -0.0578 -0.0524 0.9970
vn -0.0266 0.0651 0.9975
vn -0.0060 0.1157 0.9933
vn -0.0222 -0.2451 0.9692
vn 0.0062 -0.0883 -0.9961
vn 0.0140 0.1229 -0.9923
vn -0.0127 0.1175 -0.9930
vn 0.0027 -0.1112 -0.9938
vn 0.0111 -0.0581 -0.9982
vn 0.0234 0.1173 -0.9928
vn 0.0057 0.1498 -0.9887
vn 0.0163 0.1654 -0.9861
vn -0.0105 0.1324 -0.9911
vn 0.0354 0.1626 -0.9861
vn 0.0155 0.1433 -0.9896
vn -0.0126 -0.7173 0.6966
vn 0.0207 0.5262 -0.8501
vn -0.0021 -0.8467 -0.5321
vn -0.0263 -0.7879 -0.6153
vn 0.0014 0.5922 -0.8058
vn 0.0204 -0.8143 -0.5800
vn -0.0473 -0.7408 0.6701
vn -0.0009 -0.8573 0.5148
usemtl Default_OBJ
s 1
f 33//1 68//2 3//3 32//4
f 5//5 6//6 45//7 56//8 51//9 7//10 8//11 24//12 31//13 21//14 9//15 2//16 36//17 61//18 40//19 1//20 10//21
f 19//22 20//23 12//24 66//25
f 13//26 4//27 41//28 60//29 32//4 3//3 12//24 20//23 30//30 22//31 11//32 14//33 48//34 55//35 46//36 15//37 16//38
f 49//39 77//40 7//10 51//9
f 75//41 82//42 84//43 71//44
f 29//45 30//30 20//23 19//22
f 27//46 29//45 19//22 17//47
f 31//13 28//48 18//49 21//14
f 28//48 27//46 17//47 18//49
f 67//50 11//32 22//31 25//51
f 83//52 67//50 25//51 26//53
f 8//11 72//54 23//55 24//12
f 72//54 83//52 26//53 23//55
f 25//51 22//31 30//30 29//45
f 26//53 25//51 29//45 27//46
f 24//12 23//55 28//48 31//13
f 23//55 26//53 27//46 28//48
f 59//56 33//1 32//4 60//29
f 57//57 35//58 33//1 59//56
f 61//18 36//17 34//59 58//60
f 58//60 34//59 35//58 57//57
f 69//61 39//62 41//28 4//27
f 85//63 37//64 39//62 69//61
f 1//20 40//19 38//65 70//66
f 70//66 38//65 37//64 85//63
f 76//67 43//68 45//7 6//6
f 15//37 46//36 44//69 65//70
f 81//71 42//72 43//68 76//67
f 65//70 44//69 42//72 81//71
f 53//73 49//39 51//9 56//8
f 55//35 48//34 47//74 54//75
f 52//76 50//77 49//39 53//73
f 54//75 47//74 50//77 52//76
f 43//68 53//73 56//8 45//7
f 46//36 55//35 54//75 44//69
f 42//72 52//76 53//73 43//68
f 44//69 54//75 52//76 42//72
f 39//62 59//56 60//29 41//28
f 37//64 57//57 59//56 39//62
f 40//19 61//18 58//60 38//65
f 38//65 58//60 57//57 37//64
f 35//58 84//43 68//2 33//1
f 17//47 19//22 66//25 82//42
f 13//26 62//78 69//61 4//27
f 48//34 14//33 64//79 47//74
f 16//38 63//80 62//78 13//26
f 11//32 67//50 64//79 14//33
f 79//81 63//80 65//70 81//71
f 82//42 66//25 68//2 84//43
f 50//77 80//82 77//40 49//39
f 9//15 75//41 71//44 2//16
f 36//17 2//16 71//44 34//59
f 5//5 73//83 76//67 6//6
f 62//78 78//84 85//63 69//61
f 21//14 18//49 75//41 9//15
f 83//52 72//54 77//40 80//82
f 78//84 74//85 70//66 85//63
f 79//81 73//83 74//85 78//84
f 34//59 71//44 84//43 35//58
f 47//74 64//79 80//82 50//77
f 73//83 79//81 81//71 76//67
f 63//80 79//81 78//84 62//78
f 18//49 17//47 82//42 75//41
f 67//50 83//52 80//82 64//79
f 63//80 16//38 15//37 65//70
f 72//54 8//11 7//10 77//40
f 74//85 10//21 1//20 70//66
f 66//25 12//24 3//3 68//2
f 73//83 5//5 10//21 74//85
